<svg xmlns="http://www.w3.org/2000/svg" enable-background="new 0 0 3800 3000" viewBox="0 0 3800 3000"><path fill="#f6f6f6" d="M3361.71,880.89c-395.44-444.29-896.13-189.11-1292.57-193.36C1887.28,288.32,968.04,31.69,516.66,708.69
		c-298.29,423.57-56.88,1106.99,674.52,1187.52c147.78,442.31,696.23,760.08,1396.55,425.02
		C3469.32,1867.27,3615.6,1166.14,3361.71,880.89z"/><path fill="#dbc6ce" d="M3498.75,1830.08c0,0-131.95,78.1-173.18,137.1c-41.17,58.87-104.34,82.77-104.34,82.77l-61.79-29.28
				l5.16,66.55c-127.9,52.89-253.8-24.01-283.52-44.35c-4.36-2.94-6.67-4.64-6.67-4.64c-10.75-170.43,208.2-209.45,355.21-239.45
				C3376.42,1768.83,3498.75,1830.08,3498.75,1830.08z"/><path fill="#594a42" d="M3344.32,1850.92l-152.27,82.93l-21.99-21.51l-23.69,23.27c0,0-194.47,44.46-266.11,106.6l70.92-45.98
				l117.72-58.04l96.6-36.4C3165.5,1901.8,3288.78,1861.28,3344.32,1850.92z" opacity=".2"/><path fill="#fff" d="M3498.75,1830.08c0,0-131.95,78.1-173.18,137.1c-41.17,58.87-104.34,82.77-104.34,82.77l-61.79-29.28
				l5.16,66.55c-127.9,52.89-253.8-24.01-283.52-44.35c4.24-0.16,7.09-0.09,7.09-0.09c205.01,52.78,235.11-0.26,235.11-0.26
				l15.67-81.46l61.69,19.47c0,0,64.42-34.44,102.06-79.66C3340.26,1855.78,3498.75,1830.08,3498.75,1830.08z" opacity=".1"/><path fill="#f6f6f6" d="M3344.24,1850.42c-84.16,17.74-166.82,42.51-247.16,73.42c-79.88,31.71-158.41,69.35-227.02,122.36
			l-12.93,9.8c-4.35,3.22-8.12,7.16-12.21,10.7l-24.09,21.85c-15,15.45-30.26,30.65-44.86,46.48
			c-12.24,13.13-24.21,26.5-36.13,39.92c1.85,2.64,3.75,5.25,5.69,7.83c12.31-13.91,24.7-27.74,37.35-41.33
			c14.32-15.97,29.3-31.32,44.02-46.92l23.37-21.78c3.97-3.54,7.62-7.47,11.86-10.7l12.63-9.84
			c67.12-53.08,144.84-91.48,224.08-123.94c79.6-31.99,161.81-57.95,245.59-76.92L3344.24,1850.42z"/><path fill="#e3e0e1" d="M3324.46,1462.94c0,0-63.34,116.04-67.89,177.93c-4.56,61.77-40.83,107.33-40.83,107.33l-58.7,5.54
				l33.16,47.04c-71.46,95.57-198.65,94.09-229.64,92.12c-4.53-0.26-6.99-0.5-6.99-0.5c-83.1-121.55,61.95-246.99,157.65-334.02
				C3206.81,1471.48,3324.46,1462.94,3324.46,1462.94z"/><path fill="#594a42" d="M3219.21,1546.45l-76.27,128.58l-25.77-6.24l-7.3,27.68c0,0-124.51,118.67-150.2,196.3l32.28-65.33
				l61.64-94.9l55.54-69.56C3109.13,1662.99,3182.62,1578.62,3219.21,1546.45z" opacity=".2"/><path fill="#fff" d="M3324.46,1462.94c0,0-63.34,116.04-67.89,177.93c-4.56,61.77-40.83,107.33-40.83,107.33l-58.7,5.54
				l33.16,47.04c-71.46,95.57-198.65,94.09-229.64,92.12c3.07-1.99,5.21-3.19,5.21-3.19c175.18-51.26,174.1-103.84,174.1-103.84
				l-24.29-67.27l54.3-12.77c0,0,32.55-53.91,40.51-104.02C3218.34,1551.85,3324.46,1462.94,3324.46,1462.94z" opacity=".1"/><path fill="#f6f6f6" d="M3218.93,1546.12c-54.54,50.25-104.87,105.03-150.78,163.36c-45.21,58.71-86.81,121.22-114.29,190.75
			l-5.26,12.96c-1.8,4.31-2.86,8.88-4.33,13.31l-8.22,26.81c-4.31,18.06-8.91,36.05-12.75,54.22c-3.28,15.12-6.26,30.31-9.17,45.5
			c2.54,1.14,5.09,2.24,7.67,3.3c2.99-15.73,6.07-31.45,9.46-47.1c3.57-18.15,7.9-36.12,11.94-54.17l7.71-26.44
			c1.38-4.38,2.35-8.89,4.07-13.16l5.02-12.86c26.34-68.92,67-131.64,111.41-190.62c44.88-58.8,94.35-114.27,148.08-165.26
			L3218.93,1546.12z"/><path fill="#e3e0e1" d="M328.31,1949.25c0,0,63.34,116.04,67.89,177.93c4.56,61.77,40.83,107.33,40.83,107.33l58.7,5.54
				l-33.16,47.04c71.46,95.57,198.65,94.09,229.64,92.12c4.53-0.26,6.99-0.5,6.99-0.5c83.1-121.55-61.95-246.99-157.65-334.02
				C445.95,1957.79,328.31,1949.25,328.31,1949.25z"/><path fill="#594a42" d="M433.55,2032.77l76.27,128.58l25.77-6.24l7.3,27.68c0,0,124.51,118.67,150.2,196.3l-32.28-65.33l-61.64-94.9
				l-55.54-69.56C543.63,2149.3,470.14,2064.93,433.55,2032.77z" opacity=".2"/><path fill="#fff" d="M328.31,1949.25c0,0,63.34,116.04,67.89,177.93c4.56,61.77,40.83,107.33,40.83,107.33l58.7,5.54
				l-33.16,47.04c71.46,95.57,198.65,94.09,229.64,92.12c-3.07-1.99-5.21-3.19-5.21-3.19c-175.18-51.26-174.1-103.84-174.1-103.84
				l24.29-67.27l-54.3-12.77c0,0-32.55-53.91-40.51-104.02C434.43,2038.16,328.31,1949.25,328.31,1949.25z" opacity=".1"/><path fill="#f6f6f6" d="M433.84,2032.43c54.54,50.25,104.87,105.03,150.78,163.36c45.21,58.71,86.81,121.22,114.29,190.75l5.26,12.96
			c1.8,4.31,2.86,8.88,4.33,13.32l8.22,26.81c4.3,18.06,8.91,36.05,12.75,54.22c3.28,15.12,6.26,30.31,9.17,45.5
			c-2.54,1.14-5.09,2.24-7.67,3.3c-2.99-15.73-6.07-31.45-9.46-47.09c-3.57-18.15-7.9-36.12-11.94-54.17l-7.71-26.44
			c-1.38-4.38-2.35-8.89-4.07-13.16l-5.02-12.86c-26.34-68.92-67-131.64-111.41-190.62c-44.88-58.8-94.35-114.27-148.08-165.26
			L433.84,2032.43z"/><path fill="#e3e0e1" d="M3428.64 2050.98c-12.71 24.24-32.55 31.18-50.55 27.51-17.97-4.61-39.34-15.57-49.75-29.99-10.76-12.98 8.08-43.06 51.14-50.95C3423.35 1990.83 3442.46 2027.11 3428.64 2050.98zM528.75 1868.95c-12.71 24.24-32.55 31.18-50.55 27.51-17.97-4.61-39.34-15.57-49.75-29.99-10.76-12.98 8.08-43.06 51.14-50.95C523.47 1808.8 542.57 1845.07 528.75 1868.95z"/><g><polygon fill="#dbc6ce" points="709.54 1144.74 814.59 2519.19 2944.21 2531.49 3030.16 1180.13"/><path fill="#594a42" d="M2943.39 1820.36c-17.51 18.89-36.94 35.21-59.01 48.49-21.8 13.12-44.81 24.11-66.51 37.41-23.87 14.63-46.08 31.56-56.52 58.47-9.15 23.58-9.3 49.25-12.7 74.01-3.27 23.85-10.18 47.68-26.03 66.35-13.41 15.79-31.44 26.65-50.16 35.03-41.77 18.7-87.3 27.72-126.34 52.55-39.96 25.42-66.21 64.04-85.85 106.34-23.2 49.94-42.71 101.11-58.18 153.98-7.27 24.86-13.81 49.97-19.62 75.25l561.75 3.25 50.3-790.85C2982.21 1769.85 2965.29 1796.74 2943.39 1820.36zM1303.25 1305.39c408.52 12.23 816.89 21 1225.59 23.66 163.92 1.07 327.83 1.49 491.75 1.38l9.56-150.3-2320.62-35.39 11.33 148.19C915.04 1294.4 1109.16 1299.58 1303.25 1305.39z" opacity=".2"/><polygon fill="#385c65" points="3030.15 887.7 3006.06 610.71 795.48 608.23 709.53 880.57"/><polygon fill="#385c65" points="954.58 1480.71 996.8 2033.13 1852.74 2038.08 1887.28 1494.93"/><polygon fill="#385c65" points="658.61 2482.91 658.61 2550.82 3061.99 2550.82 3061.99 2489.28 2639.67 2499.89 2747.9 1496.09 2053.95 1476.99 2060.31 2493.52"/><polygon fill="#fbf4fe" points="1002.33 1527.51 1040.23 2033.55 1808.53 2038.08 1839.53 1540.54"/><polygon fill="#385c65" points="2094.27 2531.49 2605.72 2531.49 2711.83 1530.89 2094.27 1508.2"/><rect width="858.29" height="47.05" x="994.45" y="2014.55" fill="#385c65"/><path fill="#385c65" d="M628.37,916.59v262.37c0,62.53,50.69,113.22,113.22,113.22c62.53,0,113.22-50.69,113.22-113.22V916.59
				H628.37z"/><path fill="#fdf6fe" d="M854.81,916.59v262.37c0,62.53,50.69,113.22,113.22,113.22c62.53,0,113.22-50.69,113.22-113.22V916.59
				H854.81z"/><path fill="#385c65" d="M1081.26,916.59v262.37c0,62.53,50.69,113.22,113.22,113.22c62.53,0,113.22-50.69,113.22-113.22V916.59
				H1081.26z"/><path fill="#fdf6fe" d="M1307.71,916.59v262.37c0,62.53,50.69,113.22,113.22,113.22s113.22-50.69,113.22-113.22V916.59H1307.71z"/><path fill="#385c65" d="M1534.15,916.59v262.37c0,62.53,50.69,113.22,113.22,113.22c62.53,0,113.22-50.69,113.22-113.22V916.59
				H1534.15z"/><path fill="#fdf6fe" d="M1760.6,916.59v262.37c0,62.53,50.69,113.22,113.22,113.22c62.53,0,113.22-50.69,113.22-113.22V916.59
				H1760.6z"/><path fill="#385c65" d="M1987.05,916.59v262.37c0,62.53,50.69,113.22,113.22,113.22c62.53,0,113.22-50.69,113.22-113.22V916.59
				H1987.05z"/><path fill="#fdf6fe" d="M2213.5,916.59v262.37c0,62.53,50.69,113.22,113.22,113.22s113.22-50.69,113.22-113.22V916.59H2213.5z"/><path fill="#385c65" d="M2439.94 916.59v262.37c0 62.53 50.69 113.22 113.22 113.22 62.53 0 113.22-50.69 113.22-113.22V916.59H2439.94zM2892.84 916.59v262.37c0 62.53 50.69 113.22 113.22 113.22 62.53 0 113.22-50.69 113.22-113.22V916.59H2892.84z"/><path fill="#fdf6fe" d="M2666.39,916.59v262.37c0,62.53,50.69,113.22,113.22,113.22c62.53,0,113.22-50.69,113.22-113.22V916.59
				H2666.39z"/><g><polygon fill="#1b2e36" points="854.81 918.91 969.41 770.16 768.43 770.16 628.37 918.91"/><polygon fill="#eff1f2" points="1081.26 918.91 1170.39 770.16 969.41 770.16 854.81 918.91"/><polygon fill="#1b2e36" points="1307.71 918.91 1371.37 770.16 1170.39 770.16 1081.26 918.91"/><polygon fill="#eff1f2" points="1534.15 918.91 1572.35 770.16 1371.37 770.16 1307.71 918.91"/><polygon fill="#1b2e36" points="1760.6 918.91 1773.34 770.16 1572.35 770.16 1534.15 918.91"/><polygon fill="#eff1f2" points="1987.05 918.91 1974.32 770.16 1773.34 770.16 1760.6 918.91"/><polygon fill="#1b2e36" points="2213.5 918.91 2175.3 770.16 1974.32 770.16 1987.05 918.91"/><polygon fill="#eff1f2" points="2439.94 918.91 2376.28 770.16 2175.3 770.16 2213.5 918.91"/><polygon fill="#1b2e36" points="2666.39 918.91 2577.26 770.16 2376.28 770.16 2439.94 918.91"/><polygon fill="#1b2e36" points="3119.29 918.91 2979.22 770.16 2778.24 770.16 2892.84 918.91"/><polygon fill="#eff1f2" points="2892.84 918.91 2778.24 770.16 2577.26 770.16 2666.39 918.91"/></g><polygon fill="#1b2e36" points="2094.27 1805.4 2183.4 1805.4 2218.42 2079.17 2331.42 2061.6 2352.12 2209.68 2385.54 1849.97 2489 1849.97 2506.5 2007.54 2566.99 1697.17 2693.33 1705.36 2605.72 2531.49 2094.27 2531.49" opacity=".3"/><polygon fill="#1b2e36" points="1013.68 1679.11 1121.7 1692.55 1156.72 1813.72 1269.73 1805.94 1290.42 1871.48 1323.84 1712.27 1427.3 1712.27 1444.8 1782.02 1505.29 1644.65 1833.7 1648.27 1808.53 2013.91 1032.57 2013.91" opacity=".1"/><rect width="2490.92" height="70.27" x="628.37" y="2531.49" fill="#1b2e36"/></g><g><polygon fill="#ffbf9f" points="3364.06 2649.15 2768.66 2649.15 2841.76 2061.6 3290.96 2061.6"/><path fill="#e36247" d="M2962.63 2134.88c0 11.33-9.19 20.52-20.52 20.52s-20.52-9.19-20.52-20.52c0-11.33 9.19-20.52 20.52-20.52S2962.63 2123.55 2962.63 2134.88zM3208.33 2134.88c0 11.33-9.19 20.52-20.52 20.52s-20.52-9.19-20.52-20.52c0-11.33 9.19-20.52 20.52-20.52S3208.33 2123.55 3208.33 2134.88z"/><path fill="#1b2e36" d="M2934.05,2142.83c5.51,54.68,43.41,100.3,97.06,113.89c26.2,6.63,56.7,6.33,81.26-6.01
				c12.11-6.09,20.73-16.21,26.37-28.39c5.04-10.86,9-19.51,17.98-27.77c17.33-15.95,38-27.76,40.43-53.47
				c1.1-11.7-17.18-11.63-18.27,0c-2.03,21.45-29.23,32.86-41.99,47.55c-8.46,9.75-11.22,21.32-17.89,32.03
				c-8.77,14.1-25.2,19.16-40.9,21.17c-61.62,7.91-119.52-37.07-125.76-99C2951.16,2131.24,2932.87,2131.12,2934.05,2142.83
				L2934.05,2142.83z"/></g><g><polygon fill="#fa9c70" points="3095.06 2649.15 2602.67 2649.15 2663.13 2163.25 3034.61 2163.25"/><path fill="#e36247" d="M2763.08 2223.86c0 9.37-7.6 16.97-16.97 16.97s-16.97-7.6-16.97-16.97c0-9.37 7.6-16.97 16.97-16.97S2763.08 2214.49 2763.08 2223.86zM2966.27 2223.86c0 9.37-7.6 16.97-16.97 16.97-9.37 0-16.97-7.6-16.97-16.97 0-9.37 7.6-16.97 16.97-16.97C2958.67 2206.89 2966.27 2214.49 2966.27 2223.86z"/><path fill="#1b2e36" d="M2739.45,2230.43c4.56,45.22,35.9,82.95,80.27,94.18c21.67,5.49,46.89,5.23,67.2-4.97
				c10.01-5.03,17.14-13.41,21.81-23.48c4.16-8.98,7.45-16.14,14.87-22.96c14.33-13.19,31.42-22.96,33.43-44.22
				c0.91-9.68-14.21-9.62-15.11,0c-1.67,17.74-24.17,27.17-34.73,39.33c-7,8.06-9.28,17.63-14.8,26.49
				c-7.25,11.66-20.84,15.84-33.82,17.51c-50.96,6.55-98.84-30.66-104-81.87C2753.6,2220.84,2738.47,2220.74,2739.45,2230.43
				L2739.45,2230.43z"/></g><g><path fill="#ff9c92" d="M624.77 1821.49c0 0-133.98 235.39-81.94 273.32 52.04 37.93 131.17-27.13 131.17-27.13l56.27-205.74L624.77 1821.49zM1120.68 1768.1c0 0 168.92 211.72 123.41 257.27-45.52 45.56-133.8-6.42-133.8-6.42l-87.56-194.5L1120.68 1768.1z"/><path fill="#f28b86" d="M1249.45,1984.17c0,0,66.29-85.18,96.83-87c30.54-1.82,37.42,10.5,37.42,10.5s-76.16,197.22-139.81,193.22
			C1180.23,2096.9,1249.45,1984.17,1249.45,1984.17z"/><path fill="#1b2e36" d="M1042.63,2592.51c-33.39,9.44-320.46,89.06-513.24,68.81c-207.12-21.59-220.95-118.57-227.53-165.12
				c-6.75-46.21,43.18-110.98,148.59-139.82c13.32-3.54,32.55-5.23,56.17-5.23c153.82,0,541.86,42.01,578.8,49.43L1042.63,2592.51z"/><polygon fill="#ff9c92" points="665.5 2659.15 553.49 2659.13 542.84 2583.9 635.85 2567.78"/><path fill="#395b64" d="M591.25,2670.24c-12.54,17.3-32.73,29.22-51.8,37.19c-21.73,9.08-46.11-5.32-49.1-28.68l-10.73-84.04
				c-2.8-21.92,14.71-41.35,36.79-40.39c18.89,0.83,40.14,4.77,56.93,15.96c15.8,10.7,25.57,26.5,29.29,47.19
				C606.12,2637.23,602.17,2654.9,591.25,2670.24z"/><path fill="#1b2e36" d="M1427.86,2538.37c-1.52,28.5-7.76,84.67-24.63,100.02c-17.03,15.18-89.05,1.01-119.75-5.06
				c-3.04-0.67-5.4-1.18-7.59-1.52L1427.86,2538.37z"/><path fill="#395b64" d="M1436.29,2538.54c-3.04,3.37-6.07,6.75-9.11,9.96c-43.18,44.52-101.87,74.38-129.03,86.69
				c-0.51,0.17-1.01,0.51-1.52,0.68c-4.38,1.86-10.11,3.54-17.03,5.23c-123.8,30.36-627.26,37.11-632.83,37.11
				c-2.7,0.17-5.23-0.84-7.76-3.2c-0.84-0.84-1.85-1.69-2.7-2.87c-0.17-0.34-0.5-0.51-0.67-0.85c-1.52-2.03-3.04-4.56-4.56-7.42
				c0-0.17-0.17-0.34-0.17-0.51c-11.64-23.11-18.05-68.31-21.25-100.53c-0.33-3.03-0.5-6.07-0.84-8.77
				c-0.34-4.89-0.67-9.28-0.84-13.16l387.76-123.12l16.7-5.23l32.38-10.29l26.48-8.43l140.84-44.7c0.5-0.17,16.19-5.4,39.8-10.63
				v-0.16c2.7-0.51,5.57-1.02,8.6-1.69c23.95-4.9,53.97-9.45,83.99-9.62c7.93,0,15.85,0.17,23.61,0.85
				c46.21,3.88,88.55,21.25,103.73,66.79C1490.77,2451.51,1470.02,2499.92,1436.29,2538.54z"/><path fill="#e36247" d="M881.1,1588.93c-184.5,7.23-325.74,688.29-275.76,750.4c164.38,204.28,630.07,57.94,661.12-3.92
				C1326.13,2216.51,1091.58,1580.68,881.1,1588.93z"/><path fill="#1b2e36" d="M876.29,1538.77c-24.03,25.01-12.03,43.49-43.4,24.76c-31.37-18.74-52.06-20.9-53.22-78.33
				c-1.16-57.43,22.13-23.04,25.63-73.46c3.5-50.43,26.57-27,49.94-52.65c23.37-25.65,62.07,4.56,77.39-3.49
				c15.33-8.05,38.56,23.11,22.9,47.31c-15.65,24.2-69.09,31.09-93.76,56.11C837.09,1484.04,876.29,1538.77,876.29,1538.77z"/><path fill="#ff9c92" d="M845.28,1613.94l5.24-74.33c0,0-1.75-9.77-9.95-10.19c-12.72-0.64-19.83-22.09-13.23-32.3
					c9.32-14.38,21.23-1.77,21.23-1.77s28.44-43.06,49.98-51.75c29.23-11.8,57.34-2.01,57.34-2.01s25.43,95.94,9.43,120.18
					c-15.99,24.24-51.48,14.74-51.48,14.74l12.84,48.51c0,0-12.02,29.82-41.36,25.77C855.99,1646.76,845.28,1613.94,845.28,1613.94z
					"/><path fill="#0f1019" d="M932.37,1578.24c-5.29-2.53-10.74-4.75-15.94-6.67c-11.95-4.44-24.21-9.39-36.66-12.86
					c4.78,16.51,15.97,30.93,21.17,47.38c5.41,17.08,6.74,13.17-6.31,26.59c-6.04,6.21-13.6,10.65-21.73,14.11
					c3.75,1.84,7.77,3.37,12.42,4.01c29.34,4.05,41.36-25.78,41.36-25.78l-12.84-48.51C913.85,1576.52,922.1,1578.65,932.37,1578.24
					z" opacity=".1"/><path fill="#ef9a9e" d="M839.04,1498.05c0,0-8.55-0.03-9.21,4.01c-0.66,4.04,3.15,19.09,3.15,19.09s0.24-14.2,1.52-17
					C835.78,1501.34,840.21,1499.44,839.04,1498.05z"/><path fill="#33133f" d="M885.77 1525.83c-.01 3.91 4.77 7.08 10.68 7.1 5.91.02 10.71-3.14 10.72-7.05.01-3.91-4.77-7.08-10.68-7.1C890.57 1518.77 885.77 1521.92 885.77 1525.83zM950.95 1515.37c-.01 3.91 4.77 7.09 10.68 7.1 5.91.01 10.71-3.14 10.72-7.05.01-3.9-4.77-7.08-10.68-7.1C955.75 1508.31 950.96 1511.46 950.95 1515.37z" opacity=".05"/><path fill="#1b2e36" d="M935.52 1526.18c2.59-.55 4.52-1.77 4.66-1.87 1.21-.78 1.55-2.4.77-3.61-.78-1.2-2.39-1.53-3.59-.77l0 0c-.04.02-3.84 2.39-6.47.68-1.2-.79-2.82-.44-3.61.75-.79 1.2-.45 2.82.75 3.61C930.56 1526.62 933.29 1526.65 935.52 1526.18zM947.31 1476.13c.26-.06.51-.15.75-.29.13-.06 12.23-6.99 22.05-8.25 1.42-.22 2.43-1.5 2.24-2.93-.19-1.43-1.5-2.43-2.93-2.24-10.82 1.47-23.42 8.6-23.95 8.9-1.25.71-1.68 2.3-.97 3.56C945.09 1475.89 946.23 1476.36 947.31 1476.13zM956.02 1490.04c.48 2.87 2.98 4.85 5.6 4.41 2.62-.43 4.35-3.11 3.87-5.98-.48-2.87-2.99-4.85-5.6-4.41C957.27 1484.49 955.54 1487.17 956.02 1490.04z"/><g><path fill="#1b2e36" d="M911.55 1478.73c.99-.21 1.82-.99 2.02-2.05.27-1.41-.65-2.78-2.07-3.06-.6-.11-14.81-2.81-25.54-.67-1.3.07-2.32 1.65-2.04 3.07.28 1.41 1.65 2.33 3.07 2.04 9.7-1.94 23.39.66 23.53.69C910.87 1478.81 911.22 1478.81 911.55 1478.73zM907.58 1494.75c.48 2.87-1.26 5.55-3.87 5.99-2.62.43-5.12-1.55-5.6-4.41-.48-2.87 1.26-5.55 3.87-5.98C904.59 1489.9 907.1 1491.88 907.58 1494.75zM946.16 1544.8c.48 2.87-1.26 5.55-3.88 5.98-2.61.43-5.12-1.55-5.6-4.41-.48-2.87 1.26-5.55 3.87-5.99C943.17 1539.95 945.68 1541.93 946.16 1544.8z"/></g><path fill="#1b2e36" d="M866.37,1479.26c-8.82-4.59-11.65,30.57-11.65,30.57s-4.42-11.21-6.77-15.68
				c-2.35-4.47-4.83,0.74-12.25-15.24c-7.43-15.99-23.29-18.26,11.26-49.93c34.54-31.68,16.33-38.42,60.63-34.47
				c44.3,3.95,65.09-5.51,68.38,13.8c3.3,19.3-11.72,42.84-27.28,39.6c-15.56-3.24,2.5-3.93-32.79,6.47
				C880.6,1464.77,880.72,1486.71,866.37,1479.26z"/><g><rect width="700.87" height="499.85" x="871.48" y="2124.19" fill="#ae3b2a"/><polygon fill="#e36247" points="1525.66 2188.73 1572.35 2124.19 1572.35 2624.04 1525.66 2688.58"/><polygon fill="#e36247" points="824.79 2188.73 871.48 2124.19 871.48 2624.04 824.79 2688.58"/><path fill="#ffbf9f" d="M1118.58,2246.17c0,0-160.61-70.01-129.77-162.78c20.86-62.74,62.66-52.76,90.05-9.36
						c0,0,13.64-79.4,83.04-46.03C1231.29,2061.37,1171.48,2208.44,1118.58,2246.17z"/><path fill="#fa9c70" d="M1104.27,2374.11c0,0-160.62-70.01-129.77-162.78c20.86-62.74,62.66-52.76,90.05-9.36
						c0,0,13.64-79.4,83.04-46.03C1216.98,2189.32,1157.18,2336.38,1104.27,2374.11z"/><path fill="#ae3b2a" d="M1252.5,2240.57c0,0-138.39-60.32-111.81-140.25c17.97-54.05,53.99-45.46,77.59-8.07
						c0,0,11.75-68.41,71.55-39.66C1349.62,2081.35,1298.09,2208.06,1252.5,2240.57z"/><path fill="#ffbf9f" d="M1220.97,2357.03c0,0-118.07-129.45-52.06-201.56c44.64-48.77,78.73-22.61,86.03,28.19
						c0,0,44.85-66.93,94.59-8.14C1399.28,2234.3,1284.67,2344.16,1220.97,2357.03z"/><path fill="#fa9c70" d="M963.75,2233.22c0,0-121.47-81.67-82.17-153.28c26.57-48.42,59.42-33.94,75.41,5.84
						c0,0,23.14-63.2,75.16-25.34C1084.15,2098.3,1012.9,2210.17,963.75,2233.22z"/><polygon fill="#fff" points="1085.8 2080.26 1126.63 2132.73 1193.01 2128.84 1155.72 2183.89 1179.93 2245.82 1116.05 2227.37 1064.64 2269.53 1062.45 2203.08 1006.46 2167.21 1068.98 2144.59"/><polygon fill="#fa9c70" points="1239.48 2101.93 1268.71 2139.49 1316.22 2136.71 1289.53 2176.11 1306.86 2220.44 1261.13 2207.23 1224.34 2237.41 1222.77 2189.84 1182.69 2164.17 1227.45 2147.98"/><g><path fill="#ffbf9f" d="M1258.34,2216.84c0,0-107.38-138.45-35.83-205.07c48.39-45.05,80.28-16.26,83.51,34.96
						c0,0,50.04-63.14,94.94-0.57C1445.85,2108.72,1322.85,2209.1,1258.34,2216.84z"/><path fill="#fa9c70" d="M1184.43,2322.26c0,0-107.38-138.45-35.83-205.07c48.39-45.05,80.28-16.26,83.51,34.96
						c0,0,50.04-63.14,94.94-0.57C1371.95,2214.14,1248.95,2314.52,1184.43,2322.26z"/><path fill="#ae3b2a" d="M1378.54,2276.14c0,0-92.52-119.29-30.87-176.69c41.69-38.82,69.17-14.01,71.95,30.12
						c0,0,43.12-54.4,81.8-0.49C1540.11,2182.99,1434.13,2269.47,1378.54,2276.14z"/><path fill="#ffbf9f" d="M1295.03,2363.22c0,0-41.54-170.21,50.97-201.84c62.56-21.39,79.93,17.91,61.98,65.99
						c0,0,71.45-37.22,86.91,38.21C1510.35,2341.02,1357.1,2382.48,1295.03,2363.22z"/><polygon fill="#fff" points="1309.12 2055.53 1319.79 2121.16 1379.91 2149.57 1320.79 2180 1312.34 2245.95 1265.13 2199.13 1199.8 2211.48 1229.74 2152.11 1197.81 2093.79 1263.52 2103.92"/><polygon fill="#fa9c70" points="1433.59 2148.24 1441.23 2195.21 1484.26 2215.55 1441.94 2237.33 1435.89 2284.54 1402.1 2251.02 1355.34 2259.86 1376.77 2217.37 1353.92 2175.63 1400.95 2182.88"/></g><g><polygon fill="#21264c" points="912.7 2188.78 893.5 2166.12 1103.79 2166.12 1097.41 2175.98 1509.73 2166.16 1503.71 2190.16" opacity=".2"/></g><rect width="700.87" height="499.84" x="824.79" y="2188.73" fill="#fa9c70"/></g><path fill="#e36247" d="M808.05 1626.61c0 0-240.7 157.09-212.86 217.31 27.83 60.22 105.21 69.02 105.21 69.02L808.05 1626.61zM977.86 1626.61c0 0 240.7 157.09 212.86 217.31-27.83 60.22-105.21 69.02-105.21 69.02L977.86 1626.61z"/><g><path fill="#ff9c92" d="M900.23,1861.44c0,0-31.71-2.45-38.25,3.94c-15.17,14.83-18.41,36.09-15.79,42.28
				C862.59,1888.08,900.23,1861.44,900.23,1861.44z"/><path fill="#fff" d="M860.05,1879c0.17-4.18,1.05-8.37,0.92-12.56c-14.28,14.77-17.34,35.17-14.79,41.22
				c4.29-5.12,10.04-10.73,16.18-16.21C860.9,1887.44,859.88,1883.33,860.05,1879z" opacity=".2"/><path fill="#fa9c70" d="M1318.08,1781.77H929.95c-36.24,0-65.62,29.38-65.62,65.62l0,0c0,36.24,29.38,65.62,65.62,65.62h388.13
				c36.24,0,65.62-29.38,65.62-65.62C1383.7,1811.15,1354.32,1781.77,1318.08,1781.77z"/><path fill="#ffbf9f" d="M993.33 1879.27c-13.39 0-23.85-6.65-24.29-19.24h16.14c.44 4.79 3.46 7.09 7.71 7.09 4.43 0 7.27-2.22 7.27-5.85 0-11.53-31.12-5.32-30.94-27.4 0-11.79 9.66-18.35 22.7-18.35 13.57 0 22.7 6.74 23.32 18.62h-16.4c-.27-3.99-3.1-6.39-7.18-6.47-3.64-.09-6.38 1.77-6.38 5.67 0 10.82 30.77 5.94 30.77 26.77C1016.03 1870.58 1007.88 1879.27 993.33 1879.27zM1030.87 1816.4h48.15v12.15h-16.49v50.1h-15.16v-50.1h-16.49V1816.4zM1124.98 1879.27c-17.64 0-32.01-13.21-32.01-31.92 0-18.71 14.36-31.83 32.01-31.83 17.73 0 31.83 13.12 31.83 31.83C1156.81 1866.05 1142.63 1879.27 1124.98 1879.27zM1124.98 1865.43c9.93 0 16.4-7.18 16.4-18.09 0-11.08-6.47-18.09-16.4-18.09-10.11 0-16.49 7-16.49 18.09C1108.49 1858.25 1114.88 1865.43 1124.98 1865.43zM1199.6 1816.4c15.25 0 22.88 8.78 22.88 19.59 0 7.8-4.26 15.17-13.83 18l14.36 24.65h-17.11l-12.94-23.5h-3.64v23.5h-15.16v-62.25H1199.6zM1198.71 1828.99h-9.4v15.43h9.4c5.67 0 8.34-2.93 8.34-7.8C1207.05 1832 1204.39 1828.99 1198.71 1828.99zM1278.99 1828.55h-22.97v12.59h20.31v11.7h-20.31v13.66h22.97v12.15h-38.13v-62.25h38.13V1828.55z"/></g><g><path fill="#ff9c92" d="M904.23,1954.57c5.69-2.85,11.23-6.01,16.16-9.43l0.02,0.02c0.02-0.02,0.02-0.02,0.05-0.02
				c0.25-0.16,1.62-0.91,3.6-2.04l0.02-0.02c1.57-0.9,3.44-2.07,5.42-3.38l0,0c0,0,23.16-13.22,22.16-21.18
				c-1-7.96-6.97-8.93-6.97-8.93s4.95-6,1.09-12.57c-3.85-6.57-9.39-5.86-9.39-5.86s4.71-5.41,0.36-12.89
				c-4.36-7.48-12.25-7.26-12.25-7.26s6.6-8.61-5.52-14.36c-12.06-5.72-27.06,6.95-27.76,7.4c-3.01,1.85-5.85,3.81-8.51,5.79
				c-0.72,0.55-36.1,34.52-36.7,35.19c-42.97,48.32-371.67,67.22-303.15,189.76c59.11,105.72,325.95-133.05,325.95-133.05
				S882.89,1965.23,904.23,1954.57z"/><path fill="#fff" d="M920.39,1945.14l0.02,0.02c0.02-0.02,0.02-0.02,0.05-0.02c0.25-0.16,1.62-0.91,3.6-2.04l0.02-0.02
				c1.57-0.9,3.44-2.07,5.42-3.38l0,0c0,0,23.16-13.22,22.16-21.18c-1-7.96-6.97-8.93-6.97-8.93s4.95-6,1.09-12.57
				c-3.85-6.57-9.39-5.86-9.39-5.86s4.71-5.41,0.36-12.89c-4.36-7.48-12.25-7.26-12.25-7.26s6.6-8.61-5.52-14.36
				c-4.34-2.06-9.05-1.72-13.34-0.45c4.69,1.86,9.29,5.23,11.65,9.62c0.61,1.13,1.06,2.36,1.22,3.64c0.19,1.46-0.04,2.93,0.01,4.4
				c0.11,3.18,2.74,4.99,4.95,6.93c2.85,2.51,5.39,5.24,6.52,8.95c0.85,2.78,0.84,5.7,1.03,8.58c0.2,3.02,0.85,5.96,2.77,8.38
				c1.83,2.31,3.62,4.42,4.51,7.29c1.54,4.96-0.38,9.86-3.51,13.74c-2.16,2.69-4.87,4.85-7.5,7.06c-3.43,2.87-6.91,5.68-10.39,8.49
				c-5.96,4.81-11.82,9.63-18.32,13.69c1.85-0.68,3.73-1.45,5.66-2.42C909.92,1951.73,915.45,1948.56,920.39,1945.14z" opacity=".2"/></g><g><path fill="#ff9c92" d="M1331.84,1950.75c-27.67-15.65-41.14-62.51-30.38-71.49c5.04-4.2,16.95,9.75,28.46,25.84
					c-13.35-20.19-25.42-44.01-18.04-45.84c5.67-1.41,22.32,22.35,34.4,37.9c-7.31-11.42-22.83-37.57-18.25-41.32
					c5.83-4.78,23.88,17.72,33.9,33.57c-5.32-9.84-14.16-27.66-9.51-30.42c4.12-2.45,10.6,0.14,23.12,20.12
					c7.31,11.66,9.31,9.89,11.58,15.85c1.76,4.59,4.09,9.16,3.69,13.56C1388.87,1929.7,1342.01,1956.51,1331.84,1950.75z"/><path fill="#fff" d="M1354.11 1860.18c-1.94 1.65.69 9.25 1.48 9.7 0 0 5.68-3.23 6.39-4.22C1362.7 1864.67 1356.04 1858.53 1354.11 1860.18zM1328.94 1856.32c-1.94 1.65.69 9.25 1.49 9.7 0 0 5.68-3.23 6.39-4.22C1337.53 1860.8 1330.88 1854.67 1328.94 1856.32zM1311.88 1861.59c-1.94 1.65.69 9.25 1.48 9.7 0 0 5.68-3.23 6.39-4.22C1320.48 1866.07 1313.82 1859.94 1311.88 1861.59zM1302.1 1881.89c-1.94 1.65.69 9.25 1.48 9.69 0 0 5.68-3.23 6.39-4.22C1310.69 1886.38 1304.03 1880.24 1302.1 1881.89z" opacity=".2"/></g></g></svg>