<svg width="32" height="50" viewBox="0 0 32 50" fill="none" xmlns="http://www.w3.org/2000/svg">
<path d="M0.375 6.25C0.375 4.5924 1.03348 3.00269 2.20558 1.83058C3.37768 0.65848 4.9674 0 6.625 0L25.375 0C27.0326 0 28.6223 0.65848 29.7944 1.83058C30.9665 3.00269 31.625 4.5924 31.625 6.25V43.75C31.625 45.4076 30.9665 46.9973 29.7944 48.1694C28.6223 49.3415 27.0326 50 25.375 50H6.625C4.9674 50 3.37768 49.3415 2.20558 48.1694C1.03348 46.9973 0.375 45.4076 0.375 43.75V6.25ZM19.125 40.625C19.125 39.7962 18.7958 39.0013 18.2097 38.4153C17.6237 37.8292 16.8288 37.5 16 37.5C15.1712 37.5 14.3763 37.8292 13.7903 38.4153C13.2042 39.0013 12.875 39.7962 12.875 40.625C12.875 41.4538 13.2042 42.2487 13.7903 42.8347C14.3763 43.4208 15.1712 43.75 16 43.75C16.8288 43.75 17.6237 43.4208 18.2097 42.8347C18.7958 42.2487 19.125 41.4538 19.125 40.625Z" fill="#E64235"/>
</svg>
