<svg width="378" height="417" viewBox="0 0 378 417" fill="none" xmlns="http://www.w3.org/2000/svg">
<path d="M1.10582 392.563H3.52628L8.36719 400.711H8.57173L13.4126 392.563H15.8331L9.52628 402.824V410.018H7.41264V402.824L1.10582 392.563ZM21.7607 410.29C20.5788 410.29 19.5419 410.009 18.6499 409.447C17.7635 408.884 17.0703 408.097 16.5703 407.086C16.076 406.074 15.8288 404.893 15.8288 403.54C15.8288 402.177 16.076 400.986 16.5703 399.969C17.0703 398.952 17.7635 398.162 18.6499 397.6C19.5419 397.037 20.5788 396.756 21.7607 396.756C22.9425 396.756 23.9766 397.037 24.8629 397.6C25.755 398.162 26.4482 398.952 26.9425 399.969C27.4425 400.986 27.6925 402.177 27.6925 403.54C27.6925 404.893 27.4425 406.074 26.9425 407.086C26.4482 408.097 25.755 408.884 24.8629 409.447C23.9766 410.009 22.9425 410.29 21.7607 410.29ZM21.7607 408.483C22.6584 408.483 23.397 408.253 23.9766 407.793C24.5561 407.333 24.9851 406.728 25.2635 405.978C25.5419 405.228 25.6811 404.415 25.6811 403.54C25.6811 402.665 25.5419 401.85 25.2635 401.094C24.9851 400.339 24.5561 399.728 23.9766 399.262C23.397 398.796 22.6584 398.563 21.7607 398.563C20.8629 398.563 20.1243 398.796 19.5447 399.262C18.9652 399.728 18.5362 400.339 18.2578 401.094C17.9794 401.85 17.8402 402.665 17.8402 403.54C17.8402 404.415 17.9794 405.228 18.2578 405.978C18.5362 406.728 18.9652 407.333 19.5447 407.793C20.1243 408.253 20.8629 408.483 21.7607 408.483ZM39.0128 404.665V396.927H41.0241V410.018H39.0128V407.802H38.8764C38.5696 408.466 38.0923 409.032 37.4446 409.498C36.7969 409.958 35.9787 410.188 34.9901 410.188C34.1719 410.188 33.4446 410.009 32.8082 409.651C32.1719 409.287 31.6719 408.742 31.3082 408.015C30.9446 407.282 30.7628 406.358 30.7628 405.245V396.927H32.7741V405.108C32.7741 406.063 33.0412 406.824 33.5753 407.393C34.1151 407.961 34.8026 408.245 35.6378 408.245C36.1378 408.245 36.6463 408.117 37.1634 407.861C37.6861 407.606 38.1236 407.214 38.4759 406.685C38.8338 406.157 39.0128 405.483 39.0128 404.665ZM56.4013 410.29C55.3104 410.29 54.3473 410.015 53.5121 409.464C52.6768 408.907 52.0234 408.123 51.5518 407.111C51.0803 406.094 50.8445 404.893 50.8445 403.506C50.8445 402.131 51.0803 400.938 51.5518 399.927C52.0234 398.915 52.6797 398.134 53.5206 397.583C54.3615 397.032 55.3331 396.756 56.4354 396.756C57.2876 396.756 57.9609 396.898 58.4553 397.182C58.9553 397.461 59.3359 397.779 59.5973 398.137C59.8643 398.489 60.0717 398.779 60.2195 399.006H60.3899V392.563H62.4013V410.018H60.4581V408.006H60.2195C60.0717 408.245 59.8615 408.546 59.5888 408.91C59.3161 409.268 58.9268 409.589 58.4212 409.873C57.9155 410.151 57.2422 410.29 56.4013 410.29ZM56.674 408.483C57.4808 408.483 58.1626 408.273 58.7195 407.853C59.2763 407.427 59.6996 406.839 59.9893 406.089C60.2791 405.333 60.424 404.461 60.424 403.472C60.424 402.495 60.282 401.64 59.9979 400.907C59.7138 400.168 59.2933 399.594 58.7365 399.185C58.1797 398.77 57.4922 398.563 56.674 398.563C55.8217 398.563 55.1115 398.782 54.5433 399.219C53.9808 399.651 53.5575 400.239 53.2734 400.983C52.995 401.722 52.8558 402.552 52.8558 403.472C52.8558 404.404 52.9979 405.251 53.282 406.012C53.5717 406.768 53.9979 407.37 54.5604 407.819C55.1286 408.262 55.8331 408.483 56.674 408.483ZM71.6825 410.29C70.5007 410.29 69.4638 410.009 68.5717 409.447C67.6854 408.884 66.9922 408.097 66.4922 407.086C65.9979 406.074 65.7507 404.893 65.7507 403.54C65.7507 402.177 65.9979 400.986 66.4922 399.969C66.9922 398.952 67.6854 398.162 68.5717 397.6C69.4638 397.037 70.5007 396.756 71.6825 396.756C72.8643 396.756 73.8984 397.037 74.7848 397.6C75.6768 398.162 76.37 398.952 76.8643 399.969C77.3643 400.986 77.6143 402.177 77.6143 403.54C77.6143 404.893 77.3643 406.074 76.8643 407.086C76.37 408.097 75.6768 408.884 74.7848 409.447C73.8984 410.009 72.8643 410.29 71.6825 410.29ZM71.6825 408.483C72.5803 408.483 73.3189 408.253 73.8984 407.793C74.478 407.333 74.907 406.728 75.1854 405.978C75.4638 405.228 75.603 404.415 75.603 403.54C75.603 402.665 75.4638 401.85 75.1854 401.094C74.907 400.339 74.478 399.728 73.8984 399.262C73.3189 398.796 72.5803 398.563 71.6825 398.563C70.7848 398.563 70.0462 398.796 69.4666 399.262C68.8871 399.728 68.4581 400.339 68.1797 401.094C67.9013 401.85 67.7621 402.665 67.7621 403.54C67.7621 404.415 67.9013 405.228 68.1797 405.978C68.4581 406.728 68.8871 407.333 69.4666 407.793C70.0462 408.253 70.7848 408.483 71.6825 408.483ZM89.446 402.143V410.018H87.4347V396.927H89.3778V398.972H89.5483C89.8551 398.307 90.321 397.773 90.946 397.37C91.571 396.961 92.3778 396.756 93.3665 396.756C94.2528 396.756 95.0284 396.938 95.6932 397.302C96.358 397.66 96.875 398.205 97.2443 398.938C97.6136 399.665 97.7983 400.586 97.7983 401.699V410.018H95.7869V401.836C95.7869 400.807 95.5199 400.006 94.9858 399.432C94.4517 398.853 93.7188 398.563 92.7869 398.563C92.1449 398.563 91.571 398.702 91.0653 398.981C90.5653 399.259 90.1705 399.665 89.8807 400.199C89.5909 400.733 89.446 401.381 89.446 402.143ZM106.792 410.29C105.61 410.29 104.573 410.009 103.681 409.447C102.795 408.884 102.102 408.097 101.602 407.086C101.107 406.074 100.86 404.893 100.86 403.54C100.86 402.177 101.107 400.986 101.602 399.969C102.102 398.952 102.795 398.162 103.681 397.6C104.573 397.037 105.61 396.756 106.792 396.756C107.974 396.756 109.008 397.037 109.894 397.6C110.786 398.162 111.479 398.952 111.974 399.969C112.474 400.986 112.724 402.177 112.724 403.54C112.724 404.893 112.474 406.074 111.974 407.086C111.479 408.097 110.786 408.884 109.894 409.447C109.008 410.009 107.974 410.29 106.792 410.29ZM106.792 408.483C107.69 408.483 108.428 408.253 109.008 407.793C109.587 407.333 110.016 406.728 110.295 405.978C110.573 405.228 110.712 404.415 110.712 403.54C110.712 402.665 110.573 401.85 110.295 401.094C110.016 400.339 109.587 399.728 109.008 399.262C108.428 398.796 107.69 398.563 106.792 398.563C105.894 398.563 105.156 398.796 104.576 399.262C103.996 399.728 103.567 400.339 103.289 401.094C103.011 401.85 102.871 402.665 102.871 403.54C102.871 404.415 103.011 405.228 103.289 405.978C103.567 406.728 103.996 407.333 104.576 407.793C105.156 408.253 105.894 408.483 106.792 408.483ZM121.487 396.927V398.631H114.703V396.927H121.487ZM116.68 393.79H118.692V406.268C118.692 406.836 118.774 407.262 118.939 407.546C119.109 407.824 119.325 408.012 119.587 408.108C119.854 408.199 120.135 408.245 120.43 408.245C120.652 408.245 120.834 408.233 120.976 408.211C121.118 408.182 121.232 408.16 121.317 408.143L121.726 409.949C121.589 410.001 121.399 410.052 121.155 410.103C120.911 410.16 120.601 410.188 120.226 410.188C119.658 410.188 119.101 410.066 118.555 409.822C118.016 409.577 117.567 409.205 117.209 408.705C116.857 408.205 116.68 407.574 116.68 406.813V393.79ZM133.274 402.143V410.018H131.263V392.563H133.274V398.972H133.445C133.751 398.296 134.212 397.759 134.825 397.361C135.445 396.958 136.268 396.756 137.297 396.756C138.189 396.756 138.97 396.935 139.641 397.293C140.311 397.645 140.831 398.188 141.2 398.921C141.575 399.648 141.763 400.574 141.763 401.699V410.018H139.751V401.836C139.751 400.796 139.482 399.992 138.942 399.424C138.408 398.85 137.666 398.563 136.717 398.563C136.058 398.563 135.467 398.702 134.945 398.981C134.428 399.259 134.018 399.665 133.717 400.199C133.422 400.733 133.274 401.381 133.274 402.143ZM149.295 410.324C148.465 410.324 147.712 410.168 147.036 409.856C146.36 409.537 145.823 409.08 145.425 408.483C145.028 407.881 144.829 407.154 144.829 406.302C144.829 405.552 144.977 404.944 145.272 404.478C145.567 404.006 145.962 403.637 146.457 403.37C146.951 403.103 147.496 402.904 148.093 402.773C148.695 402.637 149.3 402.529 149.908 402.449C150.704 402.347 151.349 402.27 151.843 402.219C152.343 402.162 152.707 402.069 152.934 401.938C153.167 401.807 153.283 401.58 153.283 401.256V401.188C153.283 400.347 153.053 399.694 152.593 399.228C152.138 398.762 151.448 398.529 150.522 398.529C149.562 398.529 148.809 398.739 148.263 399.16C147.718 399.58 147.335 400.029 147.113 400.506L145.204 399.824C145.545 399.029 145.999 398.41 146.567 397.966C147.141 397.518 147.766 397.205 148.442 397.029C149.124 396.847 149.795 396.756 150.454 396.756C150.874 396.756 151.357 396.807 151.903 396.91C152.454 397.006 152.985 397.208 153.496 397.515C154.013 397.822 154.442 398.285 154.783 398.904C155.124 399.523 155.295 400.353 155.295 401.393V410.018H153.283V408.245H153.181C153.045 408.529 152.817 408.833 152.499 409.157C152.181 409.481 151.758 409.756 151.229 409.983C150.701 410.211 150.056 410.324 149.295 410.324ZM149.602 408.518C150.397 408.518 151.067 408.361 151.613 408.049C152.164 407.736 152.579 407.333 152.857 406.839C153.141 406.344 153.283 405.824 153.283 405.279V403.438C153.198 403.54 153.011 403.634 152.721 403.719C152.437 403.799 152.107 403.87 151.732 403.932C151.363 403.989 151.002 404.04 150.65 404.086C150.303 404.126 150.022 404.16 149.806 404.188C149.283 404.256 148.795 404.367 148.34 404.52C147.891 404.668 147.528 404.893 147.249 405.194C146.977 405.489 146.84 405.893 146.84 406.404C146.84 407.103 147.099 407.631 147.616 407.989C148.138 408.341 148.8 408.518 149.602 408.518ZM169.202 396.927L164.361 410.018H162.315L157.474 396.927H159.656L163.27 407.358H163.406L167.02 396.927H169.202ZM176.876 410.29C175.615 410.29 174.527 410.012 173.612 409.455C172.703 408.893 172.001 408.108 171.507 407.103C171.018 406.091 170.774 404.915 170.774 403.574C170.774 402.233 171.018 401.052 171.507 400.029C172.001 399.001 172.689 398.199 173.57 397.626C174.456 397.046 175.49 396.756 176.672 396.756C177.354 396.756 178.027 396.87 178.692 397.097C179.357 397.324 179.962 397.694 180.507 398.205C181.053 398.711 181.487 399.381 181.811 400.216C182.135 401.052 182.297 402.08 182.297 403.302V404.154H172.206V402.415H180.251C180.251 401.677 180.104 401.018 179.808 400.438C179.518 399.858 179.104 399.401 178.564 399.066C178.03 398.731 177.399 398.563 176.672 398.563C175.871 398.563 175.178 398.762 174.592 399.16C174.013 399.552 173.567 400.063 173.254 400.694C172.942 401.324 172.786 402.001 172.786 402.722V403.881C172.786 404.87 172.956 405.708 173.297 406.395C173.643 407.077 174.124 407.597 174.737 407.955C175.351 408.307 176.064 408.483 176.876 408.483C177.405 408.483 177.882 408.41 178.308 408.262C178.74 408.108 179.112 407.881 179.425 407.58C179.737 407.273 179.979 406.893 180.149 406.438L182.092 406.983C181.888 407.643 181.544 408.222 181.061 408.722C180.578 409.216 179.982 409.603 179.271 409.881C178.561 410.154 177.763 410.29 176.876 410.29ZM195.959 410.324C195.129 410.324 194.376 410.168 193.7 409.856C193.024 409.537 192.487 409.08 192.089 408.483C191.692 407.881 191.493 407.154 191.493 406.302C191.493 405.552 191.641 404.944 191.936 404.478C192.232 404.006 192.626 403.637 193.121 403.37C193.615 403.103 194.161 402.904 194.757 402.773C195.359 402.637 195.964 402.529 196.572 402.449C197.368 402.347 198.013 402.27 198.507 402.219C199.007 402.162 199.371 402.069 199.598 401.938C199.831 401.807 199.947 401.58 199.947 401.256V401.188C199.947 400.347 199.717 399.694 199.257 399.228C198.803 398.762 198.112 398.529 197.186 398.529C196.226 398.529 195.473 398.739 194.928 399.16C194.382 399.58 193.999 400.029 193.777 400.506L191.868 399.824C192.209 399.029 192.663 398.41 193.232 397.966C193.805 397.518 194.43 397.205 195.107 397.029C195.788 396.847 196.459 396.756 197.118 396.756C197.538 396.756 198.021 396.807 198.567 396.91C199.118 397.006 199.649 397.208 200.161 397.515C200.678 397.822 201.107 398.285 201.447 398.904C201.788 399.523 201.959 400.353 201.959 401.393V410.018H199.947V408.245H199.845C199.709 408.529 199.482 408.833 199.163 409.157C198.845 409.481 198.422 409.756 197.893 409.983C197.365 410.211 196.72 410.324 195.959 410.324ZM196.266 408.518C197.061 408.518 197.732 408.361 198.277 408.049C198.828 407.736 199.243 407.333 199.521 406.839C199.805 406.344 199.947 405.824 199.947 405.279V403.438C199.862 403.54 199.675 403.634 199.385 403.719C199.101 403.799 198.771 403.87 198.396 403.932C198.027 403.989 197.666 404.04 197.314 404.086C196.967 404.126 196.686 404.16 196.47 404.188C195.947 404.256 195.459 404.367 195.004 404.52C194.555 404.668 194.192 404.893 193.913 405.194C193.641 405.489 193.504 405.893 193.504 406.404C193.504 407.103 193.763 407.631 194.28 407.989C194.803 408.341 195.464 408.518 196.266 408.518ZM207.641 402.143V410.018H205.63V396.927H207.573V398.972H207.744C208.05 398.307 208.516 397.773 209.141 397.37C209.766 396.961 210.573 396.756 211.562 396.756C212.448 396.756 213.224 396.938 213.888 397.302C214.553 397.66 215.07 398.205 215.44 398.938C215.809 399.665 215.994 400.586 215.994 401.699V410.018H213.982V401.836C213.982 400.807 213.715 400.006 213.181 399.432C212.647 398.853 211.914 398.563 210.982 398.563C210.34 398.563 209.766 398.702 209.261 398.981C208.761 399.259 208.366 399.665 208.076 400.199C207.786 400.733 207.641 401.381 207.641 402.143ZM220.496 414.927C220.155 414.927 219.851 414.898 219.584 414.841C219.317 414.79 219.132 414.739 219.03 414.688L219.541 412.915C220.03 413.04 220.462 413.086 220.837 413.052C221.212 413.018 221.544 412.85 221.834 412.549C222.129 412.253 222.399 411.773 222.643 411.108L223.018 410.086L218.178 396.927H220.359L223.973 407.358H224.109L227.723 396.927H229.905L224.348 411.927C224.098 412.603 223.788 413.162 223.419 413.606C223.05 414.055 222.621 414.387 222.132 414.603C221.649 414.819 221.104 414.927 220.496 414.927ZM239.31 410.018V396.927H241.253V398.904H241.389C241.628 398.256 242.06 397.731 242.685 397.327C243.31 396.924 244.014 396.722 244.798 396.722C244.946 396.722 245.131 396.725 245.352 396.731C245.574 396.736 245.741 396.745 245.855 396.756V398.802C245.787 398.785 245.631 398.759 245.386 398.725C245.148 398.685 244.895 398.665 244.628 398.665C243.991 398.665 243.423 398.799 242.923 399.066C242.429 399.327 242.037 399.691 241.747 400.157C241.463 400.617 241.321 401.143 241.321 401.733V410.018H239.31ZM253.33 410.29C252.068 410.29 250.98 410.012 250.065 409.455C249.156 408.893 248.455 408.108 247.96 407.103C247.472 406.091 247.227 404.915 247.227 403.574C247.227 402.233 247.472 401.052 247.96 400.029C248.455 399.001 249.142 398.199 250.023 397.626C250.909 397.046 251.943 396.756 253.125 396.756C253.807 396.756 254.48 396.87 255.145 397.097C255.81 397.324 256.415 397.694 256.96 398.205C257.506 398.711 257.94 399.381 258.264 400.216C258.588 401.052 258.75 402.08 258.75 403.302V404.154H248.659V402.415H256.705C256.705 401.677 256.557 401.018 256.261 400.438C255.972 399.858 255.557 399.401 255.017 399.066C254.483 398.731 253.852 398.563 253.125 398.563C252.324 398.563 251.631 398.762 251.045 399.16C250.466 399.552 250.02 400.063 249.707 400.694C249.395 401.324 249.239 402.001 249.239 402.722V403.881C249.239 404.87 249.409 405.708 249.75 406.395C250.097 407.077 250.577 407.597 251.19 407.955C251.804 408.307 252.517 408.483 253.33 408.483C253.858 408.483 254.335 408.41 254.761 408.262C255.193 408.108 255.565 407.881 255.878 407.58C256.19 407.273 256.432 406.893 256.602 406.438L258.545 406.983C258.341 407.643 257.997 408.222 257.514 408.722C257.031 409.216 256.435 409.603 255.724 409.881C255.014 410.154 254.216 410.29 253.33 410.29ZM267.128 410.29C265.901 410.29 264.844 410.001 263.957 409.421C263.071 408.841 262.389 408.043 261.912 407.026C261.435 406.009 261.196 404.847 261.196 403.54C261.196 402.211 261.44 401.037 261.929 400.02C262.423 398.998 263.111 398.199 263.991 397.626C264.878 397.046 265.912 396.756 267.094 396.756C268.014 396.756 268.844 396.927 269.582 397.268C270.321 397.608 270.926 398.086 271.398 398.699C271.869 399.313 272.162 400.029 272.276 400.847H270.264C270.111 400.251 269.77 399.722 269.241 399.262C268.719 398.796 268.014 398.563 267.128 398.563C266.344 398.563 265.656 398.768 265.065 399.177C264.48 399.58 264.023 400.151 263.693 400.89C263.369 401.623 263.207 402.483 263.207 403.472C263.207 404.483 263.366 405.364 263.685 406.114C264.009 406.864 264.463 407.447 265.048 407.861C265.639 408.276 266.332 408.483 267.128 408.483C267.651 408.483 268.125 408.393 268.551 408.211C268.977 408.029 269.338 407.768 269.634 407.427C269.929 407.086 270.139 406.677 270.264 406.199H272.276C272.162 406.972 271.881 407.668 271.432 408.287C270.989 408.901 270.401 409.39 269.668 409.753C268.94 410.111 268.094 410.29 267.128 410.29ZM280.705 410.29C279.443 410.29 278.355 410.012 277.44 409.455C276.531 408.893 275.83 408.108 275.335 407.103C274.847 406.091 274.602 404.915 274.602 403.574C274.602 402.233 274.847 401.052 275.335 400.029C275.83 399.001 276.517 398.199 277.398 397.626C278.284 397.046 279.318 396.756 280.5 396.756C281.182 396.756 281.855 396.87 282.52 397.097C283.185 397.324 283.79 397.694 284.335 398.205C284.881 398.711 285.315 399.381 285.639 400.216C285.963 401.052 286.125 402.08 286.125 403.302V404.154H276.034V402.415H284.08C284.08 401.677 283.932 401.018 283.636 400.438C283.347 399.858 282.932 399.401 282.392 399.066C281.858 398.731 281.227 398.563 280.5 398.563C279.699 398.563 279.006 398.762 278.42 399.16C277.841 399.552 277.395 400.063 277.082 400.694C276.77 401.324 276.614 402.001 276.614 402.722V403.881C276.614 404.87 276.784 405.708 277.125 406.395C277.472 407.077 277.952 407.597 278.565 407.955C279.179 408.307 279.892 408.483 280.705 408.483C281.233 408.483 281.71 408.41 282.136 408.262C282.568 408.108 282.94 407.881 283.253 407.58C283.565 407.273 283.807 406.893 283.977 406.438L285.92 406.983C285.716 407.643 285.372 408.222 284.889 408.722C284.406 409.216 283.81 409.603 283.099 409.881C282.389 410.154 281.591 410.29 280.705 410.29ZM291.196 402.143V410.018H289.185V396.927H291.128V398.972H291.298C291.605 398.307 292.071 397.773 292.696 397.37C293.321 396.961 294.128 396.756 295.116 396.756C296.003 396.756 296.778 396.938 297.443 397.302C298.108 397.66 298.625 398.205 298.994 398.938C299.364 399.665 299.548 400.586 299.548 401.699V410.018H297.537V401.836C297.537 400.807 297.27 400.006 296.736 399.432C296.202 398.853 295.469 398.563 294.537 398.563C293.895 398.563 293.321 398.702 292.815 398.981C292.315 399.259 291.92 399.665 291.631 400.199C291.341 400.733 291.196 401.381 291.196 402.143ZM308.917 396.927V398.631H302.133V396.927H308.917ZM304.11 393.79H306.121V406.268C306.121 406.836 306.204 407.262 306.369 407.546C306.539 407.824 306.755 408.012 307.016 408.108C307.283 408.199 307.565 408.245 307.86 408.245C308.082 408.245 308.263 408.233 308.406 408.211C308.548 408.182 308.661 408.16 308.746 408.143L309.156 409.949C309.019 410.001 308.829 410.052 308.585 410.103C308.34 410.16 308.031 410.188 307.656 410.188C307.087 410.188 306.531 410.066 305.985 409.822C305.445 409.577 304.996 409.205 304.638 408.705C304.286 408.205 304.11 407.574 304.11 406.813V393.79ZM324.011 410.29C322.829 410.29 321.792 410.009 320.9 409.447C320.013 408.884 319.32 408.097 318.82 407.086C318.326 406.074 318.079 404.893 318.079 403.54C318.079 402.177 318.326 400.986 318.82 399.969C319.32 398.952 320.013 398.162 320.9 397.6C321.792 397.037 322.829 396.756 324.011 396.756C325.192 396.756 326.227 397.037 327.113 397.6C328.005 398.162 328.698 398.952 329.192 399.969C329.692 400.986 329.942 402.177 329.942 403.54C329.942 404.893 329.692 406.074 329.192 407.086C328.698 408.097 328.005 408.884 327.113 409.447C326.227 410.009 325.192 410.29 324.011 410.29ZM324.011 408.483C324.908 408.483 325.647 408.253 326.227 407.793C326.806 407.333 327.235 406.728 327.513 405.978C327.792 405.228 327.931 404.415 327.931 403.54C327.931 402.665 327.792 401.85 327.513 401.094C327.235 400.339 326.806 399.728 326.227 399.262C325.647 398.796 324.908 398.563 324.011 398.563C323.113 398.563 322.374 398.796 321.795 399.262C321.215 399.728 320.786 400.339 320.508 401.094C320.229 401.85 320.09 402.665 320.09 403.54C320.09 404.415 320.229 405.228 320.508 405.978C320.786 406.728 321.215 407.333 321.795 407.793C322.374 408.253 323.113 408.483 324.011 408.483ZM333.013 410.018V396.927H334.956V398.904H335.092C335.331 398.256 335.763 397.731 336.388 397.327C337.013 396.924 337.717 396.722 338.501 396.722C338.649 396.722 338.834 396.725 339.055 396.731C339.277 396.736 339.445 396.745 339.558 396.756V398.802C339.49 398.785 339.334 398.759 339.089 398.725C338.851 398.685 338.598 398.665 338.331 398.665C337.695 398.665 337.126 398.799 336.626 399.066C336.132 399.327 335.74 399.691 335.45 400.157C335.166 400.617 335.024 401.143 335.024 401.733V410.018H333.013ZM346.487 410.29C345.396 410.29 344.433 410.015 343.598 409.464C342.763 408.907 342.109 408.123 341.638 407.111C341.166 406.094 340.93 404.893 340.93 403.506C340.93 402.131 341.166 400.938 341.638 399.927C342.109 398.915 342.766 398.134 343.607 397.583C344.447 397.032 345.419 396.756 346.521 396.756C347.374 396.756 348.047 396.898 348.541 397.182C349.041 397.461 349.422 397.779 349.683 398.137C349.95 398.489 350.158 398.779 350.305 399.006H350.476V392.563H352.487V410.018H350.544V408.006H350.305C350.158 408.245 349.947 408.546 349.675 408.91C349.402 409.268 349.013 409.589 348.507 409.873C348.001 410.151 347.328 410.29 346.487 410.29ZM346.76 408.483C347.567 408.483 348.249 408.273 348.805 407.853C349.362 407.427 349.786 406.839 350.075 406.089C350.365 405.333 350.51 404.461 350.51 403.472C350.51 402.495 350.368 401.64 350.084 400.907C349.8 400.168 349.379 399.594 348.822 399.185C348.266 398.77 347.578 398.563 346.76 398.563C345.908 398.563 345.197 398.782 344.629 399.219C344.067 399.651 343.643 400.239 343.359 400.983C343.081 401.722 342.942 402.552 342.942 403.472C342.942 404.404 343.084 405.251 343.368 406.012C343.658 406.768 344.084 407.37 344.646 407.819C345.214 408.262 345.919 408.483 346.76 408.483ZM361.939 410.29C360.678 410.29 359.589 410.012 358.675 409.455C357.766 408.893 357.064 408.108 356.57 407.103C356.081 406.091 355.837 404.915 355.837 403.574C355.837 402.233 356.081 401.052 356.57 400.029C357.064 399.001 357.751 398.199 358.632 397.626C359.518 397.046 360.553 396.756 361.734 396.756C362.416 396.756 363.089 396.87 363.754 397.097C364.419 397.324 365.024 397.694 365.57 398.205C366.115 398.711 366.55 399.381 366.874 400.216C367.197 401.052 367.359 402.08 367.359 403.302V404.154H357.268V402.415H365.314C365.314 401.677 365.166 401.018 364.871 400.438C364.581 399.858 364.166 399.401 363.626 399.066C363.092 398.731 362.462 398.563 361.734 398.563C360.933 398.563 360.24 398.762 359.655 399.16C359.075 399.552 358.629 400.063 358.317 400.694C358.004 401.324 357.848 402.001 357.848 402.722V403.881C357.848 404.87 358.018 405.708 358.359 406.395C358.706 407.077 359.186 407.597 359.8 407.955C360.413 408.307 361.126 408.483 361.939 408.483C362.467 408.483 362.945 408.41 363.371 408.262C363.803 408.108 364.175 407.881 364.487 407.58C364.8 407.273 365.041 406.893 365.212 406.438L367.155 406.983C366.95 407.643 366.607 408.222 366.124 408.722C365.641 409.216 365.044 409.603 364.334 409.881C363.624 410.154 362.825 410.29 361.939 410.29ZM370.419 410.018V396.927H372.362V398.904H372.499C372.737 398.256 373.169 397.731 373.794 397.327C374.419 396.924 375.124 396.722 375.908 396.722C376.055 396.722 376.24 396.725 376.462 396.731C376.683 396.736 376.851 396.745 376.964 396.756V398.802C376.896 398.785 376.74 398.759 376.496 398.725C376.257 398.685 376.004 398.665 375.737 398.665C375.101 398.665 374.533 398.799 374.033 399.066C373.538 399.327 373.146 399.691 372.857 400.157C372.572 400.617 372.43 401.143 372.43 401.733V410.018H370.419Z" fill="#282828"/>
<g filter="url(#filter0_f_933_3553)">
<rect x="80.1006" y="285.496" width="189.922" height="19.2612" fill="#1B3554"/>
</g>
<rect x="81.6328" y="22.2598" width="189.922" height="126.803" fill="#E0E5EC"/>
<path fill-rule="evenodd" clip-rule="evenodd" d="M81.6325 22.2598V214.872H51V98.4003L66.3187 73.7617L81.6325 22.2598Z" fill="#CFD4DC"/>
<path fill-rule="evenodd" clip-rule="evenodd" d="M270.023 22.2598V214.872H300.655V98.4003L285.337 73.7617L270.023 22.2598Z" fill="#CFD4DC"/>
<path d="M51 97.6973H300.655V319.016C300.655 321.778 298.417 324.016 295.655 324.016H56C53.2386 324.016 51 321.778 51 319.016V97.6973Z" fill="white"/>
<path opacity="0.5" fill-rule="evenodd" clip-rule="evenodd" d="M126.044 186.793C126.044 185.71 126.588 184.698 127.54 184.183C129.658 183.036 133.711 181.168 137.65 181.168C141.59 181.168 145.529 183.036 147.576 184.183C148.498 184.699 149.018 185.689 149.018 186.746C149.018 189.325 146.008 190.999 143.584 190.118C141.781 189.462 139.695 188.947 137.592 188.947C135.446 188.947 133.299 189.484 131.449 190.16C129.029 191.043 126.044 189.368 126.044 186.793Z" fill="#1B3554"/>
<path opacity="0.5" fill-rule="evenodd" clip-rule="evenodd" d="M204.156 186.793C204.156 185.71 204.7 184.698 205.653 184.183C207.77 183.036 211.824 181.168 215.763 181.168C219.702 181.168 223.641 183.036 225.688 184.183C226.61 184.699 227.131 185.689 227.131 186.746C227.131 189.325 224.12 190.999 221.697 190.118C219.894 189.462 217.807 188.947 215.705 188.947C213.558 188.947 211.411 189.484 209.561 190.16C207.142 191.043 204.156 189.368 204.156 186.793Z" fill="#1B3554"/>
<ellipse opacity="0.5" cx="176.585" cy="219.7" rx="24.506" ry="11.2406" fill="#1B3554"/>
<ellipse opacity="0.149343" cx="119.927" cy="121.771" rx="9.18976" ry="9.63061" fill="#1B3554"/>
<ellipse opacity="0.149343" cx="231.734" cy="121.771" rx="9.18976" ry="9.63061" fill="#1B3554"/>
<path d="M119.922 121.284V61.5862C119.922 29.2299 144.951 3 175.826 3C206.701 3 231.731 29.2299 231.731 61.5862V121.284" stroke="#5E7085" stroke-width="5" stroke-linecap="round" stroke-linejoin="round"/>
<g filter="url(#filter1_d_933_3553)">
<ellipse cx="300.044" cy="280.043" rx="26.9566" ry="28.2498" fill="url(#paint0_linear_933_3553)"/>
</g>
<g filter="url(#filter2_d_933_3553)">
<rect x="52" y="321" width="281" height="19" fill="white"/>
</g>
<defs>
<filter id="filter0_f_933_3553" x="55.9136" y="261.309" width="238.296" height="67.6356" filterUnits="userSpaceOnUse" color-interpolation-filters="sRGB">
<feFlood flood-opacity="0" result="BackgroundImageFix"/>
<feBlend mode="normal" in="SourceGraphic" in2="BackgroundImageFix" result="shape"/>
<feGaussianBlur stdDeviation="12.0935" result="effect1_foregroundBlur_933_3553"/>
</filter>
<filter id="filter1_d_933_3553" x="265.087" y="245.793" width="69.9131" height="72.5" filterUnits="userSpaceOnUse" color-interpolation-filters="sRGB">
<feFlood flood-opacity="0" result="BackgroundImageFix"/>
<feColorMatrix in="SourceAlpha" type="matrix" values="0 0 0 0 0 0 0 0 0 0 0 0 0 0 0 0 0 0 127 0" result="hardAlpha"/>
<feOffset dy="2"/>
<feGaussianBlur stdDeviation="4"/>
<feColorMatrix type="matrix" values="0 0 0 0 1 0 0 0 0 0.415686 0 0 0 0 0.596078 0 0 0 0.3 0"/>
<feBlend mode="normal" in2="BackgroundImageFix" result="effect1_dropShadow_933_3553"/>
<feBlend mode="normal" in="SourceGraphic" in2="effect1_dropShadow_933_3553" result="shape"/>
</filter>
<filter id="filter2_d_933_3553" x="48" y="321" width="289" height="27" filterUnits="userSpaceOnUse" color-interpolation-filters="sRGB">
<feFlood flood-opacity="0" result="BackgroundImageFix"/>
<feColorMatrix in="SourceAlpha" type="matrix" values="0 0 0 0 0 0 0 0 0 0 0 0 0 0 0 0 0 0 127 0" result="hardAlpha"/>
<feOffset dy="4"/>
<feGaussianBlur stdDeviation="2"/>
<feComposite in2="hardAlpha" operator="out"/>
<feColorMatrix type="matrix" values="0 0 0 0 0 0 0 0 0 0 0 0 0 0 0 0 0 0 0.06 0"/>
<feBlend mode="normal" in2="BackgroundImageFix" result="effect1_dropShadow_933_3553"/>
<feBlend mode="normal" in="SourceGraphic" in2="effect1_dropShadow_933_3553" result="shape"/>
</filter>
<linearGradient id="paint0_linear_933_3553" x1="300.044" y1="223.543" x2="243.606" y2="277.397" gradientUnits="userSpaceOnUse">
<stop stop-color="#FF8960"/>
<stop offset="1" stop-color="#FF62A5"/>
</linearGradient>
</defs>
</svg>
