<svg width="65" height="55" viewBox="0 0 65 55" fill="none" xmlns="http://www.w3.org/2000/svg">
<path d="M58.2972 0L58.2936 52.5481C59.2344 54.0962 60.2077 54.6915 61.0239 54.6875C61.8338 54.6837 62.7967 54.0813 63.7191 52.5796L61.2 25.74L61.1706 25.4131L61.3722 25.1526C64.2671 21.438 65.2787 15.0206 64.4529 9.5926C64.04 6.87846 63.1757 4.42189 61.9653 2.68529C60.9503 1.22896 59.7395 0.299961 58.2974 0H58.2972ZM7.3865 0.000547096L7.38432 9.17807L5.66713 9.17588V0.00109367H3.71137L3.71164 9.17629H1.99199V0.00109367H1.64538e-08V14.1143C-0.000136702 15.6752 0.851758 16.5408 2.19297 17.0759L2.74805 17.2977L2.73574 17.8951C2.4623 29.4574 2.19201 41.0196 1.92063 52.5818C2.85578 54.1119 3.81637 54.6913 4.61617 54.6875C5.41598 54.6837 6.37574 54.0891 7.299 52.5777C6.9825 41.0185 6.666 29.4591 6.35004 17.8998L6.33363 17.2982L6.89049 17.0786C8.30197 16.5173 9.22004 15.5646 9.22004 14.1151V0.000547096H7.38664H7.3865ZM32.3769 5.33203C26.539 5.33203 20.9403 7.65112 16.8123 11.7791C12.6843 15.9071 10.3652 21.5059 10.3652 27.3438C10.3652 33.1816 12.6843 38.7804 16.8123 42.9084C20.9403 47.0364 26.539 49.3555 32.3769 49.3555C38.2148 49.3555 43.8136 47.0364 47.9416 42.9084C52.0695 38.7804 54.3886 33.1816 54.3886 27.3438C54.3886 21.5059 52.0695 15.9071 47.9416 11.7791C43.8136 7.65112 38.2148 5.33203 32.3769 5.33203Z" fill="#E63F32"/>
</svg>
