<svg width="18" height="18" viewBox="0 0 18 18" fill="none" xmlns="http://www.w3.org/2000/svg">
<path d="M11.7964 5.60219L9.63415 0.75277C9.48156 0.410535 9.01137 0.410535 8.85877 0.75277L6.6965 5.60219C6.63431 5.74167 6.50653 5.83771 6.35908 5.8558L1.23254 6.48459C0.870752 6.52896 0.725455 6.99156 0.992937 7.24745L4.78312 10.8733C4.89213 10.9776 4.94094 11.133 4.912 11.2837L3.9059 16.5217C3.83489 16.8914 4.21529 17.1773 4.5332 16.9932L9.03792 14.3847C9.16749 14.3097 9.32543 14.3097 9.455 14.3847L13.9597 16.9932C14.2776 17.1773 14.658 16.8914 14.587 16.5217L13.5809 11.2837C13.552 11.133 13.6008 10.9776 13.7098 10.8733L17.5 7.24745C17.7675 6.99156 17.6222 6.52896 17.2604 6.48459L12.1338 5.8558C11.9864 5.83771 11.8586 5.74167 11.7964 5.60219Z" fill="#BDBDBD"/>
<path d="M11.7964 5.60219L9.63415 0.75277C9.48156 0.410535 9.01137 0.410535 8.85877 0.75277L6.6965 5.60219C6.63431 5.74167 6.50653 5.83771 6.35908 5.8558L1.23254 6.48459C0.870752 6.52896 0.725455 6.99156 0.992937 7.24745L4.78312 10.8733C4.89213 10.9776 4.94094 11.133 4.912 11.2837L3.9059 16.5217C3.83489 16.8914 4.21529 17.1773 4.5332 16.9932L9.03792 14.3847C9.16749 14.3097 9.32543 14.3097 9.455 14.3847L13.9597 16.9932C14.2776 17.1773 14.658 16.8914 14.587 16.5217L13.5809 11.2837C13.552 11.133 13.6008 10.9776 13.7098 10.8733L17.5 7.24745C17.7675 6.99156 17.6222 6.52896 17.2604 6.48459L12.1338 5.8558C11.9864 5.83771 11.8586 5.74167 11.7964 5.60219Z" fill="#BDBDBD"/>
</svg>
