<svg width="18" height="17" viewBox="0 0 18 17" fill="none" xmlns="http://www.w3.org/2000/svg">
<path d="M11.2899 5.48598L9.12759 0.636559C8.975 0.294324 8.50481 0.294324 8.35221 0.636559L6.18994 5.48598C6.12775 5.62546 5.99997 5.7215 5.85252 5.73959L0.725982 6.36838C0.36419 6.41275 0.218894 6.87535 0.486375 7.13123L4.27655 10.7571C4.38557 10.8614 4.43438 11.0168 4.40544 11.1675L3.39934 16.4055C3.32833 16.7752 3.70872 17.0611 4.02663 16.877L8.53136 14.2685C8.66093 14.1935 8.81887 14.1935 8.94844 14.2685L13.4532 16.877C13.7711 17.0611 14.1515 16.7752 14.0805 16.4055L13.0744 11.1675C13.0454 11.0168 13.0942 10.8614 13.2032 10.7571L16.9934 7.13123C17.2609 6.87535 17.1156 6.41275 16.7538 6.36838L11.6273 5.73959C11.4798 5.7215 11.3521 5.62546 11.2899 5.48598Z" fill="#FCA311"/>
<path d="M11.2899 5.48598L9.12759 0.636559C8.975 0.294324 8.50481 0.294324 8.35221 0.636559L6.18994 5.48598C6.12775 5.62546 5.99997 5.7215 5.85252 5.73959L0.725982 6.36838C0.36419 6.41275 0.218894 6.87535 0.486375 7.13123L4.27655 10.7571C4.38557 10.8614 4.43438 11.0168 4.40544 11.1675L3.39934 16.4055C3.32833 16.7752 3.70872 17.0611 4.02663 16.877L8.53136 14.2685C8.66093 14.1935 8.81887 14.1935 8.94844 14.2685L13.4532 16.877C13.7711 17.0611 14.1515 16.7752 14.0805 16.4055L13.0744 11.1675C13.0454 11.0168 13.0942 10.8614 13.2032 10.7571L16.9934 7.13123C17.2609 6.87535 17.1156 6.41275 16.7538 6.36838L11.6273 5.73959C11.4798 5.7215 11.3521 5.62546 11.2899 5.48598Z" fill="#FCA311"/>
</svg>
